Bevan.ufo
<glyph name="quotedbl" format="1">
  <advance width="944"/>
  <unicode hex="0022"/>
  <outline>
    <contour>
      <point x="41" y="1573" type="line"/>
      <point x="108.982" y="996" type="line"/>
      <point x="312.303" y="996" type="line"/>
      <point x="378.399" y="1573" type="line"/>
    </contour>
    <contour>
      <point x="552.178" y="1573" type="line"/>
      <point x="605.055" y="996" type="line"/>
      <point x="804.6" y="996" type="line"/>
      <point x="889.577" y="1573" type="line"/>
    </contour>
  </outline>
</glyph>
<glyph name="zero" format="1">
  <advance width="1094"/>
  <unicode hex="0030"/>
  <outline>
    <contour>
      <point x="542.264" y="1046" type="curve" smooth="yes"/>
      <point x="379.092" y="1046"/>
      <point x="383.93" y="808.057"/>
      <point x="390.018" y="693.371" type="curve"/>
      <point x="390.018" y="667" type="line" smooth="yes"/>
      <point x="390.018" y="563.795"/>
      <point x="380.364" y="345.768"/>
      <point x="506.977" y="302.711" type="curve"/>
      <point x="508.778" y="292" type="line"/>
      <point x="543.946" y="292" type="line" smooth="yes"/>
      <point x="707.992" y="292"/>
      <point x="697.034" y="558.193"/>
      <point x="697.034" y="665" type="curve" smooth="yes"/>
      <point x="697.034" y="749" type="line" smooth="yes"/>
      <point x="697.034" y="853.816"/>
      <point x="685.573" y="1046"/>
    </contour>
    <contour>
      <point x="1061.6" y="695" type="curve" smooth="yes"/>
      <point x="1061.6" y="286.956"/>
      <point x="883.721" y="25"/>
      <point x="547.311" y="25" type="curve" smooth="yes"/>
      <point x="209.512" y="25"/>
      <point x="31.5967" y="285.38"/>
      <point x="31.5967" y="695" type="curve" smooth="yes"/>
      <point x="31.5967" y="760.311" type="line"/>
      <point x="30" y="759.912" type="line"/>
      <point x="54.7793" y="1092.82"/>
      <point x="261.712" y="1315"/>
      <point x="545.629" y="1315" type="curve" smooth="yes"/>
      <point x="850.852" y="1315"/>
      <point x="1061.6" y="1064.37"/>
    </contour>
  </outline>
</glyph>
<glyph name="six" format="1">
  <advance width="1099"/>
  <unicode hex="0036"/>
  <outline>
    <contour>
      <point x="1070" y="543.458" type="curve" smooth="yes"/>
      <point x="1067.31" y="243.518"/>
      <point x="816.811" y="32"/>
      <point x="552.377" y="32" type="curve" smooth="yes"/>
      <point x="272.844" y="32"/>
      <point x="28" y="221.005"/>
      <point x="28" y="534" type="curve" smooth="yes"/>
      <point x="28" y="760.279"/>
      <point x="169.204" y="905.675"/>
      <point x="284.195" y="1050.29" type="curve" smooth="yes"/>
      <point x="306.096" y="1077.83"/>
      <point x="348.083" y="1132.73"/>
      <point x="375.257" y="1164.94" type="curve" smooth="yes"/>
      <point x="399.723" y="1193.94" type="line" smooth="yes"/>
      <point x="424.99" y="1223.89"/>
      <point x="458.694" y="1261.63"/>
      <point x="486.535" y="1294" type="curve"/>
      <point x="823.454" y="1294" type="line"/>
      <point x="765.96" y="1227.24"/>
      <point x="665.008" y="1129.97"/>
      <point x="636.238" y="1041.31" type="curve" smooth="yes"/>
      <point x="614.831" y="975.339" type="line"/>
      <point x="674.399" y="972.055" type="line" smooth="yes"/>
      <point x="901.637" y="960.194"/>
      <point x="1072.34" y="803.37"/>
    </contour>
    <contour>
      <point x="683.991" y="596" type="line" smooth="yes"/>
      <point x="683.991" y="670.294"/>
      <point x="668.153" y="827"/>
      <point x="554.908" y="827" type="curve" smooth="yes"/>
      <point x="431.994" y="827"/>
      <point x="412.326" y="683.447"/>
      <point x="412.326" y="585.5" type="curve" smooth="yes"/>
      <point x="412.326" y="551" type="line" smooth="yes"/>
      <point x="412.326" y="475.207"/>
      <point x="411.619" y="278"/>
      <point x="543.096" y="278" type="curve" smooth="yes"/>
      <point x="648.744" y="278"/>
      <point x="683.991" y="401.514"/>
      <point x="683.991" y="546" type="curve" smooth="yes"/>
    </contour>
  </outline>
</glyph>
<glyph name="at" format="1">
  <advance width="1613"/>
  <unicode hex="0040"/>
  <outline>
    <contour>
      <point x="938.268" y="357.392" type="line"/>
      <point x="947.094" y="366.024"/>
      <point x="954.64" y="376.589"/>
      <point x="962.222" y="386.616" type="curve"/>
      <point x="962.222" y="667" type="line" smooth="yes"/>
      <point x="962.222" y="740.199"/>
      <point x="958.405" y="864"/>
      <point x="846.327" y="864" type="curve" smooth="yes"/>
      <point x="710.631" y="864"/>
      <point x="726.732" y="650.008"/>
      <point x="726.774" y="591.021" type="curve"/>
      <point x="725.87" y="589.039" type="line"/>
      <point x="725.87" y="577" type="line" smooth="yes"/>
      <point x="725.87" y="513.497"/>
      <point x="721.598" y="319"/>
      <point x="839.027" y="319" type="curve" smooth="yes"/>
      <point x="851.684" y="319"/>
      <point x="864.161" y="320.424"/>
      <point x="876.175" y="323.35" type="curve"/>
      <point x="850.169" y="283.112"/>
      <point x="785.458" y="240"/>
      <point x="719.482" y="240" type="curve" smooth="yes"/>
      <point x="592.768" y="240"/>
      <point x="505.031" y="395.653"/>
      <point x="505.031" y="587" type="curve" smooth="yes"/>
      <point x="505.031" y="806.768"/>
      <point x="626.481" y="913"/>
      <point x="844.502" y="913" type="curve" smooth="yes"/>
      <point x="869.141" y="913" type="line" smooth="yes"/>
      <point x="1056.54" y="913"/>
      <point x="1154.76" y="810.634"/>
      <point x="1155.68" y="602.876" type="curve" smooth="yes"/>
      <point x="1156.73" y="369.04" type="line"/>
      <point x="1194.81" y="344" type="line"/>
      <point x="1207.7" y="344" type="line" smooth="yes"/>
      <point x="1385.21" y="344"/>
      <point x="1404" y="539.863"/>
      <point x="1404" y="675" type="curve" smooth="yes"/>
      <point x="1404" y="1017.21"/>
      <point x="1139.77" y="1166"/>
      <point x="830.814" y="1166" type="curve" smooth="yes"/>
      <point x="482.053" y="1166"/>
      <point x="243" y="945.206"/>
      <point x="243" y="565" type="curve" smooth="yes"/>
      <point x="243" y="173.487"/>
      <point x="530.473" y="-17"/>
      <point x="876.442" y="-17" type="curve" smooth="yes"/>
      <point x="916.017" y="-17"/>
      <point x="954.405" y="-13.123"/>
      <point x="990.281" y="-5.63477" type="curve"/>
      <point x="1016.97" y="-133.86" type="line"/>
      <point x="967.358" y="-144.904"/>
      <point x="921.999" y="-150"/>
      <point x="876.442" y="-150" type="curve" smooth="yes"/>
      <point x="488.023" y="-150"/>
      <point x="216.289" y="14.5654"/>
      <point x="89.2363" y="288.521" type="curve" smooth="yes"/>
      <point x="49.7373" y="373.074"/>
      <point x="30" y="463.834"/>
      <point x="30" y="563" type="curve" smooth="yes"/>
      <point x="30" y="797.418"/>
      <point x="126.255" y="968.888"/>
      <point x="249.569" y="1093.45" type="curve" smooth="yes"/>
      <point x="376.995" y="1222.17"/>
      <point x="577.749" y="1317"/>
      <point x="829.901" y="1317" type="curve" smooth="yes"/>
      <point x="1174.58" y="1317"/>
      <point x="1418.9" y="1167.33"/>
      <point x="1531.72" y="922.582" type="curve" smooth="yes"/>
      <point x="1568.01" y="844.452"/>
      <point x="1586" y="762.316"/>
      <point x="1586" y="674" type="curve" smooth="yes"/>
      <point x="1586" y="373.382"/>
      <point x="1388.51" y="253"/>
      <point x="1084.5" y="253" type="curve" smooth="yes"/>
      <point x="978.49" y="253" type="line"/>
    </contour>
    <contour>
      <point x="923.296" y="396.248" type="line"/>
      <point x="876.175" y="323.35" type="line"/>
      <point x="899.251" y="328.97"/>
      <point x="920.618" y="340.132"/>
      <point x="938.268" y="357.392" type="curve"/>
    </contour>
  </outline>
</glyph>
<glyph name="A" format="1">
  <advance width="1496"/>
  <unicode hex="0041"/>
  <outline>
    <contour>
      <point x="477.679" y="574" type="line"/>
      <point x="438.644" y="303" type="line"/>
      <point x="575.501" y="303" type="line"/>
      <point x="575.501" y="51" type="line"/>
      <point x="32" y="51" type="line"/>
      <point x="32" y="303" type="line"/>
      <point x="176.938" y="303" type="line"/>
      <point x="430.163" y="1291" type="line"/>
      <point x="219" y="1291" type="line"/>
      <point x="219" y="1542" type="line"/>
      <point x="1039.42" y="1542" type="line"/>
      <point x="1342.56" y="303" type="line"/>
      <point x="1458" y="303" type="line"/>
      <point x="1458" y="51" type="line"/>
      <point x="780.162" y="51" type="line"/>
      <point x="780.162" y="303" type="line"/>
      <point x="904.785" y="303" type="line"/>
      <point x="844.064" y="574" type="line"/>
    </contour>
    <contour>
      <point x="500.641" y="712" type="line"/>
      <point x="823.143" y="712" type="line"/>
      <point x="658.372" y="1474.27" type="line"/>
    </contour>
  </outline>
</glyph>
<glyph name="J" format="1">
  <advance width="1115"/>
  <unicode hex="004A"/>
  <outline>
    <contour>
      <point x="914" y="1291" type="line"/>
      <point x="914" y="475" type="line" smooth="yes"/>
      <point x="914" y="185.598"/>
      <point x="765.168" y="21"/>
      <point x="523.798" y="21" type="curve" smooth="yes"/>
      <point x="418.692" y="21"/>
      <point x="353.69" y="54.6857"/>
      <point x="314.781" y="111.037" type="curve" smooth="yes"/>
      <point x="268.103" y="178.641" type="line"/>
      <point x="211.541" y="38" type="line"/>
      <point x="27" y="38" type="line"/>
      <point x="27" y="582" type="line"/>
      <point x="229.427" y="582" type="line"/>
      <point x="231.604" y="483.527"/>
      <point x="244.617" y="314"/>
      <point x="382.387" y="314" type="curve" smooth="yes"/>
      <point x="514.046" y="314"/>
      <point x="518.748" y="481.604"/>
      <point x="518.748" y="572" type="curve" smooth="yes"/>
      <point x="518.748" y="1291" type="line"/>
      <point x="389.121" y="1291" type="line"/>
      <point x="389.121" y="1542" type="line"/>
      <point x="1061" y="1542" type="line"/>
      <point x="1061" y="1291" type="line"/>
    </contour>
  </outline>
</glyph>
<glyph name="L" format="1">
  <advance width="1155"/>
  <unicode hex="004C"/>
  <outline>
    <contour>
      <point x="611.424" y="359" type="line"/>
      <point x="611.424" y="1342" type="line"/>
      <point x="742.475" y="1342" type="line"/>
      <point x="742.475" y="1592" type="line"/>
      <point x="54" y="1592" type="line"/>
      <point x="54" y="1342" type="line"/>
      <point x="201" y="1342" type="line"/>
      <point x="201" y="359" type="line"/>
      <point x="59" y="359" type="line"/>
      <point x="59" y="102" type="line"/>
      <point x="1128" y="102" type="line"/>
      <point x="1128" y="709" type="line"/>
      <point x="932.875" y="709" type="line"/>
      <point x="851.294" y="359" type="line"/>
    </contour>
  </outline>
</glyph>
<glyph name="M" format="1">
  <advance width="2116"/>
  <unicode hex="004D"/>
  <outline>
    <contour>
      <point x="525.797" y="359" type="curve" smooth="yes"/>
      <point x="587.637" y="359" type="line"/>
      <point x="587.637" y="102" type="line"/>
      <point x="58" y="102" type="line"/>
      <point x="58" y="359" type="line"/>
      <point x="131" y="359" type="line" smooth="yes"/>
      <point x="147.72" y="359"/>
      <point x="161.947" y="359.335"/>
      <point x="174.182" y="360.1" type="curve" smooth="yes"/>
      <point x="222" y="363.088" type="line"/>
      <point x="222" y="1342" type="line"/>
      <point x="54" y="1342" type="line"/>
      <point x="54" y="1593" type="line"/>
      <point x="771.851" y="1593" type="line"/>
      <point x="1097.13" y="734.059" type="line"/>
      <point x="1386.74" y="1593" type="line"/>
      <point x="2055" y="1593" type="line"/>
      <point x="2055" y="1342" type="line"/>
      <point x="1908" y="1342" type="line"/>
      <point x="1908" y="359" type="line"/>
      <point x="2062" y="359" type="line"/>
      <point x="2062" y="102" type="line"/>
      <point x="1389.69" y="102" type="line"/>
      <point x="1389.69" y="359" type="line"/>
      <point x="1504.94" y="359" type="line"/>
      <point x="1504.94" y="1289.37" type="line"/>
      <point x="1103.16" y="102" type="line"/>
      <point x="904.904" y="102" type="line"/>
      <point x="435.847" y="1268.08" type="line"/>
      <point x="435.847" y="362.613" type="line"/>
      <point x="481.121" y="360.07" type="line" smooth="yes"/>
      <point x="494.126" y="359.34"/>
      <point x="508.938" y="359"/>
    </contour>
  </outline>
</glyph>
<glyph name="T" format="1">
  <advance width="1353"/>
  <unicode hex="0054"/>
  <outline>
    <contour>
      <point x="1136.8" y="1016" type="line"/>
      <point x="1323" y="1016" type="line"/>
      <point x="1323" y="1541" type="line"/>
      <point x="30" y="1541" type="line"/>
      <point x="30" y="1016" type="line"/>
      <point x="216.512" y="1016" type="line"/>
      <point x="260.512" y="1291" type="line"/>
      <point x="470.249" y="1291" type="line"/>
      <point x="470.249" y="309" type="line"/>
      <point x="324.764" y="309" type="line"/>
      <point x="324.764" y="51" type="line"/>
      <point x="1024.69" y="51" type="line"/>
      <point x="1024.69" y="309" type="line"/>
      <point x="879.203" y="309" type="line"/>
      <point x="879.203" y="1291" type="line"/>
      <point x="1094.8" y="1291" type="line"/>
    </contour>
  </outline>
</glyph>
<glyph name="U" format="1">
  <advance width="1451"/>
  <unicode hex="0055"/>
  <outline>
    <contour>
      <point x="190" y="704" type="curve" smooth="yes"/>
      <point x="190" y="1291" type="line"/>
      <point x="29" y="1291" type="line"/>
      <point x="29" y="1541" type="line"/>
      <point x="742.965" y="1541" type="line"/>
      <point x="742.965" y="1291" type="line"/>
      <point x="610.024" y="1291" type="line"/>
      <point x="610.024" y="600" type="line" smooth="yes"/>
      <point x="610.024" y="452.478"/>
      <point x="662.759" y="295"/>
      <point x="825.604" y="295" type="curve" smooth="yes"/>
      <point x="955.125" y="295"/>
      <point x="1047.47" y="388.379"/>
      <point x="1047.47" y="536" type="curve" smooth="yes"/>
      <point x="1047.47" y="1291" type="line"/>
      <point x="900.159" y="1291" type="line"/>
      <point x="900.159" y="1541" type="line"/>
      <point x="1421" y="1541" type="line"/>
      <point x="1421" y="1291" type="line"/>
      <point x="1267" y="1291" type="line"/>
      <point x="1267" y="520" type="line" smooth="yes"/>
      <point x="1267" y="205.917"/>
      <point x="1019.55" y="22"/>
      <point x="718.712" y="22" type="curve" smooth="yes"/>
      <point x="335.447" y="22"/>
      <point x="190" y="259.632"/>
    </contour>
  </outline>
</glyph>
<glyph name="backslash" format="1">
  <advance width="743"/>
  <unicode hex="005C"/>
  <outline>
    <contour>
      <point x="310.904" y="51" type="line"/>
      <point x="703.305" y="51" type="line"/>
      <point x="409.017" y="1572" type="line"/>
      <point x="16" y="1572" type="line"/>
    </contour>
  </outline>
</glyph>
<glyph name="c" format="1">
  <advance width="962"/>
  <unicode hex="0063"/>
  <outline>
    <contour>
      <point x="527" y="-18" type="curve" smooth="yes"/>
      <point x="256" y="-18"/>
      <point x="37" y="162"/>
      <point x="37" y="495" type="curve" smooth="yes"/>
      <point x="37" y="795"/>
      <point x="267" y="989"/>
      <point x="509" y="989" type="curve" smooth="yes"/>
      <point x="593" y="989"/>
      <point x="749" y="952"/>
      <point x="818" y="816" type="curve"/>
      <point x="842" y="961" type="line"/>
      <point x="901" y="961" type="line"/>
      <point x="901" y="663" type="line"/>
      <point x="796" y="663" type="line"/>
      <point x="796" y="755"/>
      <point x="703" y="890"/>
      <point x="536" y="890" type="curve" smooth="yes"/>
      <point x="347" y="890"/>
      <point x="183" y="757"/>
      <point x="183" y="493" type="curve" smooth="yes"/>
      <point x="183" y="215"/>
      <point x="328" y="81"/>
      <point x="540" y="81" type="curve" smooth="yes"/>
      <point x="804" y="81"/>
      <point x="810" y="289"/>
      <point x="815" y="323" type="curve"/>
      <point x="903" y="323" type="line"/>
      <point x="903" y="98" type="line"/>
      <point x="809" y="30"/>
      <point x="661" y="-18"/>
    </contour>
  </outline>
</glyph>
<glyph name="i" format="1">
  <advance width="690"/>
  <unicode hex="0069"/>
  <outline>
    <contour>
      <point x="538" y="1015.23" type="line"/>
      <point x="538" y="250" type="line"/>
      <point x="642" y="250" type="line"/>
      <point x="642" y="51" type="line"/>
      <point x="51" y="51" type="line"/>
      <point x="51" y="250" type="line"/>
      <point x="153" y="250" type="line"/>
      <point x="153" y="812" type="line"/>
      <point x="44" y="812" type="line"/>
      <point x="44" y="962.184" type="line"/>
    </contour>
    <contour>
      <point x="538" y="1436" type="curve" smooth="yes"/>
      <point x="538" y="1563.11"/>
      <point x="448.241" y="1630"/>
      <point x="302" y="1630" type="curve" smooth="yes"/>
      <point x="161.39" y="1630"/>
      <point x="76" y="1562.4"/>
      <point x="76" y="1436" type="curve" smooth="yes"/>
      <point x="76" y="1310.02"/>
      <point x="163.526" y="1237"/>
      <point x="302" y="1237" type="curve" smooth="yes"/>
      <point x="445.198" y="1237"/>
      <point x="538" y="1308.68"/>
    </contour>
  </outline>
</glyph>
<glyph name="l" format="1">
  <advance width="707"/>
  <unicode hex="006C"/>
  <outline>
    <contour>
      <point x="561" y="301" type="line"/>
      <point x="561" y="1554.36" type="line"/>
      <point x="44" y="1500.08" type="line"/>
      <point x="44" y="1324" type="line"/>
      <point x="176" y="1324" type="line"/>
      <point x="176" y="301" type="line"/>
      <point x="44" y="301" type="line"/>
      <point x="44" y="102" type="line"/>
      <point x="659" y="102" type="line"/>
      <point x="659" y="301" type="line"/>
    </contour>
  </outline>
</glyph>
<glyph name="p" format="1">
  <advance width="1244"/>
  <unicode hex="0070"/>
  <outline>
    <contour>
      <point x="829.393" y="989" type="curve" smooth="yes"/>
      <point x="1076.17" y="989"/>
      <point x="1210" y="779.614"/>
      <point x="1210" y="490" type="curve" smooth="yes"/>
      <point x="1210" y="196.252"/>
      <point x="1075.19" y="-18"/>
      <point x="827.655" y="-18" type="curve" smooth="yes"/>
      <point x="712.877" y="-18"/>
      <point x="641.102" y="37.6359"/>
      <point x="589.242" y="102.53" type="curve" smooth="yes"/>
      <point x="512.34" y="198.761" type="line"/>
      <point x="512.34" y="-198" type="line"/>
      <point x="608.759" y="-198" type="line"/>
      <point x="608.759" y="-397" type="line"/>
      <point x="44" y="-397" type="line"/>
      <point x="44" y="-196" type="line"/>
      <point x="161" y="-196" type="line"/>
      <point x="161" y="761" type="line"/>
      <point x="44" y="761" type="line"/>
      <point x="44" y="932.892" type="line"/>
      <point x="512.34" y="983.59" type="line"/>
      <point x="512.34" y="709.209" type="line"/>
      <point x="592.933" y="841.754" type="line" smooth="yes"/>
      <point x="642.643" y="923.508"/>
      <point x="712.746" y="989"/>
    </contour>
    <contour>
      <point x="671.301" y="830" type="curve" smooth="yes"/>
      <point x="589.892" y="830"/>
      <point x="529.885" y="773.962"/>
      <point x="512.34" y="691.13" type="curve"/>
      <point x="512.34" y="390" type="line" smooth="yes"/>
      <point x="512.34" y="284.544"/>
      <point x="603.771" y="243"/>
      <point x="667.826" y="243" type="curve" smooth="yes"/>
      <point x="818.415" y="243"/>
      <point x="857.189" y="402.963"/>
      <point x="857.189" y="535" type="curve" smooth="yes"/>
      <point x="857.189" y="705.855"/>
      <point x="800.212" y="830"/>
    </contour>
  </outline>
</glyph>
<glyph name="v" format="1">
  <advance width="1201"/>
  <unicode hex="0076"/>
  <outline>
    <contour>
      <point x="157.419" y="812" type="line"/>
      <point x="438.611" y="51" type="line"/>
      <point x="779.107" y="51" type="line"/>
      <point x="1046.9" y="812" type="line"/>
      <point x="1174" y="812" type="line"/>
      <point x="1174" y="1021" type="line"/>
      <point x="752.368" y="1021" type="line"/>
      <point x="752.368" y="812" type="line"/>
      <point x="857.186" y="812" type="line"/>
      <point x="676.862" y="137.305" type="line"/>
      <point x="466.276" y="812" type="line"/>
      <point x="565.454" y="812" type="line"/>
      <point x="565.454" y="1021" type="line"/>
      <point x="27" y="1021" type="line"/>
      <point x="27" y="812" type="line"/>
    </contour>
  </outline>
</glyph>
<glyph name="ordfeminine" format="1">
  <advance width="787"/>
  <unicode hex="00AA"/>
  <outline>
    <contour>
      <point x="447.45" y="1027.12" type="line"/>
      <point x="451.833" y="1033.22"/>
      <point x="455.88" y="1039.61"/>
      <point x="460.058" y="1045.88" type="curve"/>
      <point x="460.058" y="1210.53" type="line"/>
      <point x="438.669" y="1223.35" type="line" smooth="yes"/>
      <point x="423.016" y="1232.74"/>
      <point x="401.666" y="1242"/>
      <point x="377.327" y="1242" type="curve" smooth="yes"/>
      <point x="345.719" y="1242"/>
      <point x="320.49" y="1213.93"/>
      <point x="306.575" y="1181.04" type="curve"/>
      <point x="291.259" y="1192.52" type="line"/>
      <point x="291.259" y="1110" type="line" smooth="yes"/>
      <point x="291.259" y="1043.37"/>
      <point x="322.558" y="983"/>
      <point x="371.989" y="983" type="curve" smooth="yes"/>
      <point x="382.389" y="983"/>
      <point x="392.144" y="985.15"/>
      <point x="401.142" y="988.818" type="curve"/>
      <point x="378.631" y="948.787"/>
      <point x="327.441" y="909"/>
      <point x="274" y="909" type="curve" smooth="yes"/>
      <point x="139.641" y="909"/>
      <point x="38" y="984.435"/>
      <point x="38" y="1097" type="curve" smooth="yes"/>
      <point x="38" y="1114.86" type="line"/>
      <point x="50.2523" y="1229.88"/>
      <point x="171.646" y="1282"/>
      <point x="299.933" y="1282" type="curve" smooth="yes"/>
      <point x="345.534" y="1282"/>
      <point x="383.766" y="1273.14"/>
      <point x="414.791" y="1256.86" type="curve" smooth="yes"/>
      <point x="460.058" y="1233.12" type="line"/>
      <point x="460.058" y="1338" type="line" smooth="yes"/>
      <point x="460.058" y="1453"/>
      <point x="400.872" y="1511"/>
      <point x="321.95" y="1511" type="curve" smooth="yes"/>
      <point x="268.711" y="1511"/>
      <point x="203.989" y="1487.91"/>
      <point x="159.36" y="1441" type="curve"/>
      <point x="104" y="1441" type="line"/>
      <point x="104" y="1582.56" type="line"/>
      <point x="175.3" y="1601.1"/>
      <point x="298.565" y="1624"/>
      <point x="368.653" y="1624" type="curve" smooth="yes"/>
      <point x="387.668" y="1624" type="line" smooth="yes"/>
      <point x="533.269" y="1624"/>
      <point x="678" y="1571.67"/>
      <point x="678" y="1425" type="curve" smooth="yes"/>
      <point x="678" y="1046" type="line"/>
      <point x="734" y="1046" type="line"/>
      <point x="734" y="923" type="line"/>
      <point x="476.659" y="923" type="line"/>
    </contour>
    <contour>
      <point x="402.689" y="940.656" type="line" smooth="yes"/>
      <point x="402.19" y="939.71"/>
      <point x="401.674" y="938.765"/>
      <point x="401.142" y="937.818" type="curve"/>
      <point x="420.429" y="945.683"/>
      <point x="436.234" y="960.524"/>
      <point x="447.45" y="976.124" type="curve"/>
      <point x="438.421" y="1008.31" type="line"/>
    </contour>
  </outline>
</glyph>
<glyph name="degree" format="1">
  <advance width="706"/>
  <unicode hex="00B0"/>
  <outline>
    <contour>
      <point x="603" y="1297" type="curve" smooth="yes"/>
      <point x="603" y="1442.74"/>
      <point x="489.597" y="1547"/>
      <point x="344" y="1547" type="curve" smooth="yes"/>
      <point x="198.332" y="1547"/>
      <point x="93" y="1437.77"/>
      <point x="93" y="1297" type="curve" smooth="yes"/>
      <point x="93" y="1156.25"/>
      <point x="197.611" y="1041"/>
      <point x="345" y="1041" type="curve" smooth="yes"/>
      <point x="468.125" y="1041" type="line"/>
      <point x="446.778" y="1062.35" type="line"/>
      <point x="542.126" y="1100.6"/>
      <point x="603" y="1190.26"/>
    </contour>
    <contour>
      <point x="344" y="1583" type="curve" smooth="yes"/>
      <point x="534.857" y="1583"/>
      <point x="658" y="1474.72"/>
      <point x="658" y="1300" type="curve" smooth="yes"/>
      <point x="658" y="1119.46"/>
      <point x="531.318" y="1004"/>
      <point x="343" y="1004" type="curve" smooth="yes"/>
      <point x="288.491" y="1004" type="line"/>
      <point x="137.311" y="1026.13"/>
      <point x="42" y="1134.86"/>
      <point x="42" y="1296" type="curve" smooth="yes"/>
      <point x="42" y="1472.08"/>
      <point x="160.884" y="1583"/>
    </contour>
  </outline>
</glyph>
<glyph name="twosuperior" format="1">
  <advance width="703"/>
  <unicode hex="00B2"/>
  <outline>
    <contour>
      <point x="223.489" y="430" type="line"/>
      <point x="473.425" y="430" type="line"/>
      <point x="533.653" y="431.004"/>
      <point x="617.099" y="439.666"/>
      <point x="646.616" y="519" type="curve"/>
      <point x="657" y="519" type="line"/>
      <point x="657" y="337" type="line"/>
      <point x="69.873" y="337" type="line"/>
      <point x="67.7588" y="431.601" type="line"/>
      <point x="213.285" y="496.71"/>
      <point x="397" y="598.474"/>
      <point x="397" y="800" type="curve" smooth="yes"/>
      <point x="397" y="865.688"/>
      <point x="354.553" y="955"/>
      <point x="264" y="955" type="curve" smooth="yes"/>
      <point x="183.896" y="955"/>
      <point x="132" y="892.168"/>
      <point x="132" y="819" type="curve" smooth="yes"/>
      <point x="132" y="795.25"/>
      <point x="138.354" y="771.96"/>
      <point x="149.284" y="751.291" type="curve"/>
      <point x="89.8486" y="705.738" type="line"/>
      <point x="60.5264" y="744.936"/>
      <point x="46" y="792.882"/>
      <point x="46" y="856" type="curve" smooth="yes"/>
      <point x="46" y="1137.96"/>
      <point x="605" y="1134.84"/>
      <point x="605" y="845" type="curve" smooth="yes"/>
      <point x="605" y="774.266"/>
      <point x="564.252" y="710.761"/>
      <point x="516.088" y="663.598" type="curve" smooth="yes"/>
      <point x="479.041" y="627.32"/>
      <point x="421.94" y="579.437"/>
      <point x="345.321" y="521.741" type="curve" smooth="yes"/>
    </contour>
  </outline>
</glyph>
<glyph name="ae" format="1">
  <advance width="1717"/>
  <unicode hex="00E6"/>
  <outline>
    <contour>
      <point x="41" y="332.277" type="line"/>
      <point x="65.3014" y="487.343"/>
      <point x="228.031" y="564"/>
      <point x="409.98" y="564" type="curve" smooth="yes"/>
      <point x="494.014" y="564"/>
      <point x="566.849" y="551.886"/>
      <point x="628.883" y="528.749" type="curve" smooth="yes"/>
      <point x="690.859" y="505.635" type="line"/>
      <point x="690.859" y="622" type="line" smooth="yes"/>
      <point x="690.859" y="766.103"/>
      <point x="592.818" y="839"/>
      <point x="450.368" y="839" type="curve" smooth="yes"/>
      <point x="361.151" y="839"/>
      <point x="284.231" y="807.69"/>
      <point x="226.128" y="744" type="curve"/>
      <point x="126" y="744" type="line"/>
      <point x="126" y="967.324" type="line"/>
      <point x="154.889" y="974.654" type="line"/>
      <point x="241.716" y="997.98"/>
      <point x="428.99" y="1027"/>
      <point x="536.651" y="1027" type="curve" smooth="yes"/>
      <point x="675.834" y="1027"/>
      <point x="772.851" y="981.028"/>
      <point x="846.115" y="917.176" type="curve" smooth="yes"/>
      <point x="877.633" y="889.705" type="line"/>
      <point x="907.213" y="919.628" type="line" smooth="yes"/>
      <point x="968.106" y="981.229"/>
      <point x="1063.26" y="1030"/>
      <point x="1192.04" y="1030" type="curve" smooth="yes"/>
      <point x="1479.18" y="1030"/>
      <point x="1673" y="845.346"/>
      <point x="1673" y="545" type="curve" smooth="yes"/>
      <point x="1673" y="522.709"/>
      <point x="1673.19" y="500.892"/>
      <point x="1671.63" y="490" type="curve"/>
      <point x="1061.69" y="490" type="line"/>
      <point x="1061.69" y="439" type="line" smooth="yes"/>
      <point x="1061.69" y="308.832"/>
      <point x="1130.28" y="163"/>
      <point x="1271.89" y="163" type="curve" smooth="yes"/>
      <point x="1363.07" y="163"/>
      <point x="1427.83" y="214.644"/>
      <point x="1444.46" y="306" type="curve"/>
      <point x="1654" y="306" type="line"/>
      <point x="1654" y="148.137" type="line"/>
      <point x="1508.14" y="64.3457"/>
      <point x="1382.8" y="25"/>
      <point x="1180.1" y="25" type="curve" smooth="yes"/>
      <point x="1074.99" y="25"/>
      <point x="985.882" y="62.9121"/>
      <point x="906.969" y="141.617" type="curve" smooth="yes"/>
      <point x="878.511" y="170" type="line"/>
      <point x="847.502" y="144.988" type="line" smooth="yes"/>
      <point x="653.212" y="-11.727"/>
      <point x="41" y="-70.3979"/>
      <point x="41" y="299" type="curve" smooth="yes"/>
    </contour>
    <contour>
      <point x="549.502" y="156" type="curve" smooth="yes"/>
      <point x="621.262" y="156"/>
      <point x="663.976" y="197.587"/>
      <point x="695.449" y="231.875" type="curve"/>
      <point x="695.449" y="435.94" type="line"/>
      <point x="664.381" y="448.029" type="line" smooth="yes"/>
      <point x="639.281" y="457.795"/>
      <point x="601.647" y="473"/>
      <point x="558.681" y="473" type="curve" smooth="yes"/>
      <point x="475.821" y="473"/>
      <point x="414.569" y="393.575"/>
      <point x="414.569" y="310" type="curve" smooth="yes"/>
      <point x="414.569" y="297.961" type="line"/>
      <point x="415.898" y="295.065" type="line"/>
      <point x="420.787" y="219.423"/>
      <point x="472.712" y="156"/>
    </contour>
    <contour>
      <point x="1353.59" y="641" type="curve" smooth="yes"/>
      <point x="1353.59" y="723.955"/>
      <point x="1326.47" y="848"/>
      <point x="1207.64" y="848" type="curve" smooth="yes"/>
      <point x="1095.43" y="848"/>
      <point x="1061.69" y="721.147"/>
      <point x="1061.69" y="640" type="curve" smooth="yes"/>
      <point x="1061.69" y="560.473" type="line"/>
      <point x="1349.97" y="557.551" type="line"/>
      <point x="1352.59" y="606.005" type="line" smooth="yes"/>
      <point x="1353.25" y="618.217"/>
      <point x="1353.59" y="629.867"/>
    </contour>
  </outline>
</glyph>
<glyph name="eth" format="1">
  <advance width="1115"/>
  <unicode hex="00F0"/>
  <outline>
    <contour>
      <point x="34" y="590" type="curve" smooth="yes"/>
      <point x="34" y="869"/>
      <point x="244.441" y="1029"/>
      <point x="535.74" y="1029" type="curve" smooth="yes"/>
      <point x="619.17" y="1029" type="line"/>
      <point x="605.283" y="1092.74" type="line" smooth="yes"/>
      <point x="591.337" y="1156.76"/>
      <point x="577.425" y="1206.06"/>
      <point x="561.42" y="1243.19" type="curve" smooth="yes"/>
      <point x="543.521" y="1284.72" type="line"/>
      <point x="335.103" y="1185.37" type="line"/>
      <point x="314.02" y="1247.61" type="line"/>
      <point x="527.524" y="1348.78" type="line"/>
      <point x="425.504" y="1395.56" type="line" smooth="yes"/>
      <point x="384.479" y="1414.37"/>
      <point x="338.038" y="1423"/>
      <point x="286.716" y="1423" type="curve" smooth="yes"/>
      <point x="261.475" y="1423"/>
      <point x="235.164" y="1421.89"/>
      <point x="214" y="1420.03" type="curve"/>
      <point x="214" y="1630.23" type="line"/>
      <point x="296.888" y="1646.33"/>
      <point x="364.045" y="1654"/>
      <point x="429.377" y="1654" type="curve" smooth="yes"/>
      <point x="587.922" y="1654"/>
      <point x="711.852" y="1605.27"/>
      <point x="806.921" y="1510.91" type="curve" smooth="yes"/>
      <point x="826.691" y="1491.29" type="line"/>
      <point x="1020.98" y="1569.77" type="line"/>
      <point x="1047.37" y="1505.21" type="line"/>
      <point x="879.433" y="1437.83" type="line"/>
      <point x="914.711" y="1385.49" type="line" smooth="yes"/>
      <point x="1007.64" y="1247.64"/>
      <point x="1078" y="1031.35"/>
      <point x="1078" y="774" type="curve" smooth="yes"/>
      <point x="1078" y="739" type="line" smooth="yes"/>
      <point x="1078" y="330.41"/>
      <point x="886.835" y="83"/>
      <point x="543.338" y="83" type="curve" smooth="yes"/>
      <point x="266.091" y="83"/>
      <point x="34" y="280.633"/>
    </contour>
    <contour>
      <point x="426.001" y="566" type="curve" smooth="yes"/>
      <point x="426.001" y="416.423"/>
      <point x="456.854" y="285"/>
      <point x="562.753" y="285" type="curve" smooth="yes"/>
      <point x="688.451" y="285"/>
      <point x="686.843" y="492.566"/>
      <point x="686.843" y="558" type="curve" smooth="yes"/>
      <point x="686.843" y="696.611"/>
      <point x="661.544" y="826"/>
      <point x="561.065" y="826" type="curve" smooth="yes"/>
      <point x="458.562" y="826"/>
      <point x="426.001" y="704.325"/>
    </contour>
  </outline>
</glyph>
<glyph name="ij" format="1">
  <advance width="1286"/>
  <unicode hex="0133"/>
  <outline>
    <contour>
      <point x="748.78" y="-394.257" type="curve"/>
      <point x="747.581" y="-169.063" type="line"/>
      <point x="787.553" y="-160.979"/>
      <point x="841.022" y="-129.405"/>
      <point x="841.022" y="-57" type="curve" smooth="yes"/>
      <point x="841.022" y="763" type="line"/>
      <point x="496.579" y="763" type="line"/>
      <point x="496.579" y="206" type="line"/>
      <point x="569.458" y="206" type="line"/>
      <point x="569.458" y="3" type="line"/>
      <point x="65" y="3" type="line"/>
      <point x="65" y="206" type="line"/>
      <point x="147" y="206" type="line"/>
      <point x="147" y="764" type="line"/>
      <point x="58" y="764" type="line"/>
      <point x="58" y="911.406" type="line"/>
      <point x="543.304" y="970" type="line"/>
      <point x="1216" y="970" type="line"/>
      <point x="1216" y="78" type="line" smooth="yes"/>
      <point x="1216" y="-273.374"/>
      <point x="1064.07" y="-383.615"/>
    </contour>
    <contour>
      <point x="68" y="1439" type="curve" smooth="yes"/>
      <point x="68" y="1564.3"/>
      <point x="154.813" y="1633"/>
      <point x="295" y="1633" type="curve" smooth="yes"/>
      <point x="422.98" y="1633"/>
      <point x="500.917" y="1565.45"/>
      <point x="500.917" y="1439" type="curve" smooth="yes"/>
      <point x="500.917" y="1310.86"/>
      <point x="421.704" y="1240"/>
      <point x="296" y="1240" type="curve" smooth="yes"/>
      <point x="157.103" y="1240"/>
      <point x="68" y="1313.56"/>
    </contour>
    <contour>
      <point x="783.759" y="1438" type="curve" smooth="yes"/>
      <point x="783.759" y="1563.3"/>
      <point x="859.08" y="1632"/>
      <point x="982" y="1632" type="curve" smooth="yes"/>
      <point x="1128.17" y="1632"/>
      <point x="1218" y="1564.45"/>
      <point x="1218" y="1438" type="curve" smooth="yes"/>
      <point x="1218" y="1309.86"/>
      <point x="1126.7" y="1239"/>
      <point x="983" y="1239" type="curve" smooth="yes"/>
      <point x="861.066" y="1239"/>
      <point x="783.759" y="1312.56"/>
    </contour>
  </outline>
</glyph>
<glyph name="dotlessj" format="1">
  <advance width="590"/>
  <unicode hex="0237"/>
  <outline>
    <contour>
      <point x="32" y="-172.653" type="line"/>
      <point x="83.831" y="-168.624"/>
      <point x="169" y="-144.922"/>
      <point x="169" y="-60" type="curve" smooth="yes"/>
      <point x="169" y="761" type="line"/>
      <point x="39" y="761" type="line"/>
      <point x="39" y="911.017" type="line"/>
      <point x="554" y="964.437" type="line"/>
      <point x="554" y="78" type="line" smooth="yes"/>
      <point x="554" y="-275.774"/>
      <point x="385.139" y="-386.662"/>
      <point x="32" y="-397.264" type="curve"/>
    </contour>
  </outline>
</glyph>
<glyph name="uni0311" format="1">
  <advance width="722"/>
  <unicode hex="0311"/>
  <outline>
    <contour>
      <point x="505.322" y="1294" type="line"/>
      <point x="484.841" y="1389.71"/>
      <point x="409.597" y="1455"/>
      <point x="358.472" y="1455" type="curve" smooth="yes"/>
      <point x="307.289" y="1455"/>
      <point x="232.156" y="1388.58"/>
      <point x="211.763" y="1295" type="curve"/>
      <point x="59" y="1295" type="line"/>
      <point x="77.0986" y="1471.32"/>
      <point x="185.635" y="1563.06"/>
      <point x="347.291" y="1569.68" type="curve"/>
      <point x="348.151" y="1568" type="line"/>
      <point x="358.985" y="1568" type="line" smooth="yes"/>
      <point x="522.05" y="1568"/>
      <point x="639.055" y="1472.92"/>
      <point x="657.905" y="1294" type="curve"/>
    </contour>
  </outline>
</glyph>
<glyph name="uni0326" format="1">
  <advance width="491"/>
  <unicode hex="0326"/>
  <outline>
    <contour>
      <point x="209.125" y="-907.818" type="curve"/>
      <point x="209.125" y="-784.507" type="line"/>
      <point x="337.35" y="-770.84"/>
      <point x="399.125" y="-687.12"/>
      <point x="399.125" y="-550.5" type="curve" smooth="yes"/>
      <point x="399.125" y="-462" type="line"/>
      <point x="210.125" y="-462" type="line"/>
      <point x="210.125" y="-198" type="line"/>
      <point x="625.028" y="-198" type="line"/>
      <point x="636.688" y="-283.562"/>
      <point x="642.125" y="-356.915"/>
      <point x="642.125" y="-424" type="curve" smooth="yes"/>
      <point x="642.125" y="-755.156"/>
      <point x="514.67" y="-892.994"/>
    </contour>
    <contour>
      <point x="209.125" y="-681.381" type="move"/>
      <point x="209.125" y="-611.875" type="line"/>
      <point x="34" y="-787" type="line"/>
      <point x="106.484" y="-787" type="line"/>
    </contour>
  </outline>
</glyph>
<glyph name="uniFB01" format="1">
  <advance width="1420"/>
  <unicode hex="FB01"/>
  <outline>
    <contour>
      <point x="636.933" y="1368" type="curve" smooth="yes"/>
      <point x="502.564" y="1368"/>
      <point x="487.007" y="1236.9"/>
      <point x="492.685" y="1122.17" type="curve" smooth="yes"/>
      <point x="495.064" y="1074.11" type="line"/>
      <point x="1296" y="1072.12" type="line"/>
      <point x="1296" y="299" type="line"/>
      <point x="1380" y="299" type="line"/>
      <point x="1380" y="102" type="line"/>
      <point x="867.663" y="102" type="line"/>
      <point x="867.663" y="299" type="line"/>
      <point x="940.712" y="299" type="line"/>
      <point x="940.712" y="863" type="line"/>
      <point x="499.742" y="863" type="line"/>
      <point x="499.742" y="299" type="line"/>
      <point x="597.735" y="299" type="line"/>
      <point x="597.735" y="102" type="line"/>
      <point x="56" y="102" type="line"/>
      <point x="56" y="299" type="line"/>
      <point x="140" y="299" type="line"/>
      <point x="140" y="863" type="line"/>
      <point x="56" y="863" type="line"/>
      <point x="56" y="1072" type="line"/>
      <point x="139" y="1072" type="line"/>
      <point x="139" y="1123" type="line" smooth="yes"/>
      <point x="139" y="1163.38"/>
      <point x="137" y="1200.86"/>
      <point x="137" y="1258.39" type="curve" smooth="yes"/>
      <point x="137" y="1505.76"/>
      <point x="239.259" y="1610"/>
      <point x="448.073" y="1610" type="curve" smooth="yes"/>
      <point x="522.94" y="1610"/>
      <point x="614.944" y="1592.45"/>
      <point x="677.021" y="1575.65" type="curve"/>
      <point x="677.021" y="1365.04" type="line"/>
      <point x="662.672" y="1367.01"/>
      <point x="649.763" y="1368"/>
    </contour>
    <contour>
      <point x="1071.67" y="1632" type="curve" smooth="yes"/>
      <point x="1207.12" y="1632"/>
      <point x="1300" y="1559.71"/>
      <point x="1300" y="1438" type="curve" smooth="yes"/>
      <point x="1300" y="1315.35"/>
      <point x="1204.26" y="1239"/>
      <point x="1072.56" y="1239" type="curve" smooth="yes"/>
      <point x="1061.83" y="1239" type="line"/>
      <point x="1060.42" y="1238.21" type="line"/>
      <point x="946.123" y="1243.13"/>
      <point x="869.444" y="1318.62"/>
      <point x="869.444" y="1438" type="curve" smooth="yes"/>
      <point x="869.444" y="1558.92"/>
      <point x="949.214" y="1632"/>
    </contour>
  </outline>
</glyph>
<glyph name="uniFB04" format="1">
  <advance width="2271"/>
  <unicode hex="FB04"/>
  <outline>
    <contour>
      <point x="656.47" y="1364" type="curve" smooth="yes"/>
      <point x="514.699" y="1364"/>
      <point x="497.787" y="1233.24"/>
      <point x="503.814" y="1118.17" type="curve" smooth="yes"/>
      <point x="506.338" y="1070" type="line"/>
      <point x="972.3" y="1070" type="line"/>
      <point x="972.3" y="1121" type="line" smooth="yes"/>
      <point x="972.3" y="1161.38"/>
      <point x="970.415" y="1198.86"/>
      <point x="970.415" y="1256.39" type="curve" smooth="yes"/>
      <point x="970.415" y="1503.76"/>
      <point x="1066.82" y="1608"/>
      <point x="1280.59" y="1608" type="curve" smooth="yes"/>
      <point x="1360.63" y="1608"/>
      <point x="1458.45" y="1590.56"/>
      <point x="1524.77" y="1573.64" type="curve"/>
      <point x="1524.77" y="1363.04" type="line"/>
      <point x="1509.58" y="1365.01"/>
      <point x="1495.92" y="1366"/>
      <point x="1482.34" y="1366" type="curve" smooth="yes"/>
      <point x="1340.57" y="1366"/>
      <point x="1323.66" y="1235.24"/>
      <point x="1329.69" y="1120.17" type="curve" smooth="yes"/>
      <point x="1332.21" y="1072" type="line"/>
      <point x="1498.37" y="1072" type="line"/>
      <point x="1498.37" y="863" type="line"/>
      <point x="1336.21" y="863" type="line"/>
      <point x="1336.21" y="305" type="line"/>
      <point x="1439.92" y="305" type="line"/>
      <point x="1439.92" y="102" type="line"/>
      <point x="894.993" y="102" type="line"/>
      <point x="894.993" y="305" type="line"/>
      <point x="974.186" y="305" type="line"/>
      <point x="974.186" y="863" type="line"/>
      <point x="511.283" y="863" type="line"/>
      <point x="511.283" y="305" type="line"/>
      <point x="614.988" y="305" type="line"/>
      <point x="614.988" y="102" type="line"/>
      <point x="56" y="102" type="line"/>
      <point x="56" y="305" type="line"/>
      <point x="140" y="305" type="line"/>
      <point x="140" y="863" type="line"/>
      <point x="56" y="863" type="line"/>
      <point x="56" y="1072" type="line"/>
      <point x="139" y="1072" type="line"/>
      <point x="139" y="1123" type="line" smooth="yes"/>
      <point x="139" y="1163.63"/>
      <point x="137.879" y="1200.37"/>
      <point x="136.994" y="1258.77" type="curve" smooth="yes"/>
      <point x="136.377" y="1299.5" type="line"/>
      <point x="150.001" y="1513.21"/>
      <point x="249.656" y="1606"/>
      <point x="454.716" y="1606" type="curve" smooth="yes"/>
      <point x="534.754" y="1606"/>
      <point x="632.58" y="1588.56"/>
      <point x="698.895" y="1571.64" type="curve"/>
      <point x="698.895" y="1361.04" type="line"/>
      <point x="683.709" y="1363.01"/>
      <point x="670.048" y="1364"/>
    </contour>
    <contour>
      <point x="2150" y="301" type="line"/>
      <point x="2228" y="301" type="line"/>
      <point x="2228" y="98" type="line"/>
      <point x="1700.12" y="98" type="line"/>
      <point x="1700.12" y="301" type="line"/>
      <point x="1769.89" y="301" type="line"/>
      <point x="1769.89" y="1415" type="line"/>
      <point x="1690.7" y="1415" type="line"/>
      <point x="1690.7" y="1626" type="line"/>
      <point x="2150" y="1626" type="line"/>
    </contour>
  </outline>
</glyph>
